<?xml version="1.0" standalone="no"?><!DOCTYPE svg PUBLIC "-//W3C//DTD SVG 1.1//EN" "http://www.w3.org/Graphics/SVG/1.1/DTD/svg11.dtd"><svg class="icon" width="200px" height="171.96px" viewBox="0 0 1191 1024" version="1.1" xmlns="http://www.w3.org/2000/svg"><path fill="#333333" d="M653.483943 844.842926S697.999939 940.636917 800.19193 992.139913a401.097965 401.097965 0 0 0 84.146992-147.295987z m427.569962 0h-176.639984a416.550963 416.550963 0 0 1-85.962993 155.723986 301.938973 301.938973 0 0 0 118.37899 23.427998c148.029987 0 210.299982-75.597993 254.762977-128.970989-40.015996-52.089995-110.53899-50.179996-110.53899-50.179995z m-448.539961-227.44898s-33.030997 88.941992 1.269 176.613984h262.909977a401.698965 401.698965 0 0 0-9.161999-178.589984c-117.05699 0.053-256.579977 0.413-255.016978 1.976z m401.524965 176.613984s92.760992-3.179 92.760992-87.671992c0-50.193996-46.386996-90.824992-85.774992-90.824992-13.810999 0-68.505994-0.08-133.565989-0.067a424.404963 424.404963 0 0 1 8.667999 178.589984z m-235.222979-366.049968a418.821963 418.821963 0 0 1 92.707992 139.869988h186.991983s70.509994 1.91 110.53999-50.193995c-44.477996-53.359995-106.732991-128.957989-254.763977-128.957989-55.803995 0-102.511991 13.943999-140.857988 34.032997a398.059965 398.059965 0 0 1 5.382 5.248999z m-22.879998 4.661c-86.816992 53.052995-124.989989 135.208988-124.989989 135.208988h219.72898a402.473965 402.473965 0 0 0-94.737991-135.208988zM422.616963 435.999962c233.244979 0 422.600963-69.534994 422.600963-155.831987v-124.349989C845.216926 69.534994 655.806942 0 422.614963 0S0 69.533994 0 155.817986v124.349989c0 85.801992 188.928983 155.829986 422.614963 155.829987z m0 373.569967C189.354983 809.568929 0.426 740.019935 0.426 653.736943V840.529926c0 85.775992 188.929983 155.870986 422.615963 155.870986 87.645992 0 169.093985-9.816999 236.624979-26.712997a381.209966 381.209966 0 0 1-91.692992-169.627985 1092.567904 1092.567904 0 0 1-145.359987 9.509999z"  /><path fill="#333333" d="M422.614963 716.165937a1105.202903 1105.202903 0 0 0 129.131989-7.399999v-2.217a380.247967 380.247967 0 0 1 51.769995-192.093983c-54.841995 9.576999-116.20199 14.932999-180.874984 14.932998C189.355983 529.387953 0 459.85296 0 373.569967v186.777984c0 85.775992 188.928983 155.817986 422.614963 155.817986z"  /></svg>