<svg t="1562241383803" class="icon" viewBox="0 0 1024 1024" version="1.1" xmlns="http://www.w3.org/2000/svg" p-id="1747" width="200" height="200"><path d="M237.466245 825.404517v-120.336267C125.655579 678.544156 62.828925 605.388995 65.395772 506.25978c2.444617-94.117751 69.763255-168.067412 171.428761-186.585386V197.229645c-30.557711-9.870141-59.740326-27.50194-69.793813-61.757135a131.825967 131.825967 0 0 1-2.475174-64.018405C175.006283 25.525865 217.787079-2.403883 265.30432 0.162964a99.037543 99.037543 0 0 1 89.99246 79.45005c9.778468 53.475995-15.278856 91.917596-78.747222 119.175074v119.450094c82.964186 13.445393 139.648741 58.670806 168.067412 139.893202l236.33334-116.333207c-17.020645-96.867945 14.728817-162.842044 89.167402-188.266059a142.276704 142.276704 0 0 1 129.839715 249.320367c-47.67003 35.416387-129.992504 46.875529-198.869585-27.746402-37.433196 18.334627-75.722009 37.280408-114.041379 56.0734-39.38889 19.312474-78.655549 38.808293-118.319459 57.570728-12.223085 5.74485-18.762435 12.223085-18.82355 27.288036 0 19.923628-4.644772 39.725025-7.883889 64.171194l242.20042 118.655593c22.673822-42.780796 53.689899-71.749506 99.618139-82.50582 77.494356-18.334627 156.974963 31.627231 171.856569 108.388202 15.737221 81.222397-36.669254 156.516598-118.258343 170.23701-76.944317 12.925912-154.866481-44.217008-160.550216-123.086461-2.200155-30.557711-14.362124-42.9947-39.511121-54.514957-66.157445-30.343807-130.909235-63.773944-196.761103-94.728906-7.028274-3.300233-22.154341-2.658521-25.760151 2.077925-34.346868 45.042067-79.45005 70.679986-136.501296 79.113914v121.37523c64.568444 31.443885 88.25067 69.457678 76.180374 122.994788-9.809025 43.483623-50.236877 75.477547-95.73731 75.783124a99.251446 99.251446 0 0 1-97.234637-77.402683c-11.825834-51.520301 12.620335-90.481383 75.905355-121.191883z" fill="#333333" p-id="1748"></path></svg>