<?xml version="1.0" standalone="no"?><!DOCTYPE svg PUBLIC "-//W3C//DTD SVG 1.1//EN" "http://www.w3.org/Graphics/SVG/1.1/DTD/svg11.dtd"><svg class="icon" width="200px" height="200.00px" viewBox="0 0 1024 1024" version="1.1" xmlns="http://www.w3.org/2000/svg"><path fill="#333333" d="M820.2 448.6h-48.1V510h48.2c42.4 0 76.9 34.3 76.9 76.9v214.4c0 42.4-34.3 76.9-76.9 76.9H203.8c-42.4 0-76.9-34.3-76.9-76.9l0.1-214.4c0-42.4 34.3-76.9 76.9-76.9h57v-61.4h-57.1c-76.2 0-138.3 62.1-138.3 138.3v214.4c0 76.2 62.1 138.3 138.3 138.3h616.4c76.2 0 138.3-62.1 138.3-138.3V586.8c0-76.2-62.1-138.2-138.3-138.2z"  /><path fill="#333333" d="M127.1 670h770v61.4h-770zM512 174.4c94 0 170.5 76.5 170.5 170.5S606 515.4 512 515.4s-170.5-76.5-170.5-170.5S418 174.4 512 174.4m0-56.4c-125.3 0-226.9 101.6-226.9 226.9S386.7 571.8 512 571.8s226.9-101.6 226.9-226.9S637.3 118 512 118z"  /><path fill="#333333" d="M512 440.9c-52.9 0-96-43.1-96-96s43.1-96 96-96 96 43.1 96 96-43.1 96-96 96z m0-152c-30.9 0-56 25.1-56 56s25.1 56 56 56 56-25.1 56-56-25.1-56-56-56z"  /></svg>