<?xml version="1.0" standalone="no"?><!DOCTYPE svg PUBLIC "-//W3C//DTD SVG 1.1//EN" "http://www.w3.org/Graphics/SVG/1.1/DTD/svg11.dtd"><svg class="icon" width="200px" height="200.00px" viewBox="0 0 1024 1024" version="1.1" xmlns="http://www.w3.org/2000/svg"><path fill="#333333" d="M734.9 516.6L636.7 419c26.1-35 41.6-78.5 41.6-125.5 0-115.7-93.6-209.8-208.6-209.8s-208.6 94.1-208.6 209.8c0 115.7 93.6 209.8 208.6 209.8 46.9 0 90.2-15.6 125.1-42l98.3 97.8c5.8 5.7 13.3 8.6 20.9 8.6 7.7 0 15.3-2.9 21.1-8.9 11.5-11.7 11.4-30.6-0.2-42.2z m-265.2-73.1c-82.3 0-149.2-67.3-149.2-150 0-82.8 66.9-150.1 149.2-150.1 82.3 0 149.2 67.3 149.2 150.1 0 82.7-66.9 150-149.2 150z"  /><path fill="#333333" d="M821 448.6h-48V510h48.2c42.4 0 76.9 34.3 76.9 76.9v214.4c0 42.4-34.3 76.9-76.9 76.9H204.7c-42.4 0-76.9-34.3-76.9-76.9l0.1-214.4c0-42.4 34.3-76.9 76.9-76.9h57v-61.4h-57.1c-76.2 0-138.3 62.1-138.3 138.3v214.4c0 76.2 62.1 138.3 138.3 138.3H821c76.2 0 138.3-62.1 138.3-138.3V586.8c0-76.2-62-138.2-138.3-138.2z"  /><path fill="#333333" d="M128 670h770v61.4H128z"  /></svg>