<?xml version="1.0" standalone="no"?><!DOCTYPE svg PUBLIC "-//W3C//DTD SVG 1.1//EN" "http://www.w3.org/Graphics/SVG/1.1/DTD/svg11.dtd"><svg class="icon" width="200px" height="200.00px" viewBox="0 0 1024 1024" version="1.1" xmlns="http://www.w3.org/2000/svg"><path fill="#333333" d="M176.230724 746.571457C124.05848 744.990448 89.277326 698.747241 72.677253 634.32193c-16.600073-64.424288-6.719028-149.797701 22.924105-200.783932 19.219737-33.057907 55.613622-61.384046 100.392478-30.03813 47.429219 33.200146 58.496276 103.553471 77.467349 163.630754 26.086122-79.839373 84.187401-287.73733 167.583786-291.690362 72.02336-3.413749 100.645235 60.32697 125.490086 133.00013 17.10047-11.93175 34.881438-19.958564 53.950749-19.958564 60.380182 0 93.186356 71.083965 131.171482 153.390529 6.526647 14.131859 16.011672 36.07052 22.973224 50.554396 34.781154-63.2393 59.286268-89.127923 94.858438-101.972463 19.325138-6.978948 99.334379-6.992251 88.929402 103.553471-9.486048 100.787474-57.302077 154.145729-93.672426 154.145729-44.267203 0-74.898851-51.183729-90.312912-77.269851-25.822109 51.236941-52.632731 77.807087-82.83152 77.807087-34.024931 0-68.175729-37.022195-91.273796-101.917204-24.90011-69.958328-43.47721-132.209114-49.801243-152.959717-43.279712 56.322773-96.834442 251.17767-192.681394 253.747191-44.875047 1.202385-74.898851-34.18866-89.917916-71.341838C261.674745 686.4778 230.773967 745.781464 176.230724 746.571457zM166.349679 449.348078c-35.786041-4.970198-74.517157 71.067592-62.84328 148.611689 11.067057 73.515341 48.867988 101.973486 74.306356 101.973486 40.71326-2.76702 66.796312-51.381228 73.910337-71.539336C218.521922 499.149321 194.806801 453.300087 166.349679 449.348078zM291.246247 631.160937c17.929348 54.585199 38.335097 68.016093 63.634296 67.191308 72.725348-2.371 133.98762-191.495382 178.452321-256.710686-24.307615-94.265944-64.62281-111.656009-99.403964-100.589976C399.148769 352.11864 363.181603 422.471964 291.246247 631.160937zM580.763107 457.648115c4.090155 13.33061 29.073152 99.543134 58.693774 175.883823 11.508102 29.661553 27.869744 63.634296 51.381228 64.820308 23.73968 1.197268 48.812729-39.919175 62.645782-67.388806-41.896202-94.66094-87.744413-185.567369-131.418099-189.519378C607.668896 440.140369 594.473363 445.156616 580.763107 457.648115zM794.392602 633.531937c49.01125 115.411543 114.225531 63.634296 124.897591-20.553105 3.64604-28.760021-1.581008-52.962236-13.438057-64.029292C885.35429 529.818831 847.045799 524.057617 794.392602 633.531937z"  /></svg>